Coordinates
version=1
nRows=30
nColumns=30
inDegrees=yes

Units are S.I. units (second, meters, Newtons, ...)
Angles are in degrees.

endheader
time	floatyaw	floatroll	floatpitch	floatx	floaty	floatz	pro_sup_l	deviation_l	flexion_l	cmc_flexion_l	cmc_abduction_l	mp_flexion_l	ip_flexion_l	2mcp_flexion_l	2mcp_abduction_l	2pm_flexion_l	2md_flexion_l	3mcp_flexion_l	3mcp_abduction_l	3pm_flexion_l	3md_flexion_l	4mcp_flexion_l	4mcp_abduction_l	4pm_flexion_l	4md_flexion_l	5mcp_flexion_l	5mcp_abduction_l	5pm_flexion_l	5md_flexion_l
6.500000	-3.835761	-5.011433	94.526577	0.149826	-0.265133	0.144122	103.743888	18.027690	12.821730	0.338937	40.629171	-16.023788	-39.160674	61.343687	10.801563	34.017173	35.544419	54.610113	6.030751	35.424575	50.751333	42.544821	-5.756961	55.740316	53.291413	18.913528	-10.142956	51.694104	51.600113
6.533333	-3.835761	-5.011433	94.526577	0.149826	-0.265133	0.144122	103.743888	18.027690	12.821730	0.338937	40.629171	-16.023788	-39.160674	61.343687	10.801563	34.017173	35.544419	54.610113	6.030751	35.424575	50.751333	42.544821	-5.756961	55.740316	53.291413	18.913528	-10.142956	51.694104	51.600113
6.566667	-3.835761	-5.011433	94.526577	0.149826	-0.265133	0.144122	103.743888	18.027690	12.821730	0.338937	40.629171	-16.023788	-39.160674	61.343687	10.801563	34.017173	35.544419	54.610113	6.030751	35.424575	50.751333	42.544821	-5.756961	55.740316	53.291413	18.913528	-10.142956	51.694104	51.600113
6.600000	-3.835761	-5.011433	94.526577	0.149826	-0.265133	0.144122	103.743888	18.027690	12.821730	0.338937	40.629171	-16.023788	-39.160674	61.343687	10.801563	34.017173	35.544419	54.610113	6.030751	35.424575	50.751333	42.544821	-5.756961	55.740316	53.291413	18.913528	-10.142956	51.694104	51.600113
6.633333	-3.835761	-5.011433	94.526577	0.149826	-0.265133	0.144122	103.743888	18.027690	12.821730	0.338937	40.629171	-16.023788	-39.160674	61.343687	10.801563	34.017173	35.544419	54.610113	6.030751	35.424575	50.751333	42.544821	-5.756961	55.740316	53.291413	18.913528	-10.142956	51.694104	51.600113
6.666667	-3.835761	-5.011433	94.526577	0.149826	-0.265133	0.144122	103.743888	18.027690	12.821730	0.338937	40.629171	-16.023788	-39.160674	61.343687	10.801563	34.017173	35.544419	54.610113	6.030751	35.424575	50.751333	42.544821	-5.756961	55.740316	53.291413	18.913528	-10.142956	51.694104	51.600113
6.700000	-3.835761	-5.011433	94.526577	0.149826	-0.265133	0.144122	103.743888	18.027690	12.821730	0.338937	40.629171	-16.023788	-39.160674	61.343687	10.801563	34.017173	35.544419	54.610113	6.030751	35.424575	50.751333	42.544821	-5.756961	55.740316	53.291413	18.913528	-10.142956	51.694104	51.600113
6.733333	-3.835761	-5.011433	94.526577	0.149826	-0.265133	0.144122	103.743888	18.027690	12.821730	0.338937	40.629171	-16.023788	-39.160674	61.343687	10.801563	34.017173	35.544419	54.610113	6.030751	35.424575	50.751333	42.544821	-5.756961	55.740316	53.291413	18.913528	-10.142956	51.694104	51.600113
6.766667	-3.835761	-5.011433	94.526577	0.149826	-0.265133	0.144122	103.743888	18.027690	12.821730	0.338937	40.629171	-16.023788	-39.160674	61.343687	10.801563	34.017173	35.544419	54.610113	6.030751	35.424575	50.751333	42.544821	-5.756961	55.740316	53.291413	18.913528	-10.142956	51.694104	51.600113
6.800000	-3.835761	-5.011433	94.526577	0.149826	-0.265133	0.144122	103.743888	18.027690	12.821730	0.338937	40.629171	-16.023788	-39.160674	61.343687	10.801563	34.017173	35.544419	54.610113	6.030751	35.424575	50.751333	42.544821	-5.756961	55.740316	53.291413	18.913528	-10.142956	51.694104	51.600113
6.833333	-3.835761	-5.011433	94.526577	0.149826	-0.265133	0.144122	103.743888	18.027690	12.821730	0.338937	40.629171	-16.023788	-39.160674	61.343687	10.801563	34.017173	35.544419	54.610113	6.030751	35.424575	50.751333	42.544821	-5.756961	55.740316	53.291413	18.913528	-10.142956	51.694104	51.600113
6.866667	-3.835761	-5.011433	94.526577	0.149826	-0.265133	0.144122	103.743888	18.027690	12.821730	0.338937	40.629171	-16.023788	-39.160674	61.343687	10.801563	34.017173	35.544419	54.610113	6.030751	35.424575	50.751333	42.544821	-5.756961	55.740316	53.291413	18.913528	-10.142956	51.694104	51.600113
6.900000	-3.835761	-5.011433	94.526577	0.149826	-0.265133	0.144122	103.743888	18.027690	12.821730	0.338937	40.629171	-16.023788	-39.160674	61.343687	10.801563	34.017173	35.544419	54.610113	6.030751	35.424575	50.751333	42.544821	-5.756961	55.740316	53.291413	18.913528	-10.142956	51.694104	51.600113
6.933333	-3.835761	-5.011433	94.526577	0.149826	-0.265133	0.144122	103.743888	18.027690	12.821730	0.338937	40.629171	-16.023788	-39.160674	61.343687	10.801563	34.017173	35.544419	54.610113	6.030751	35.424575	50.751333	42.544821	-5.756961	55.740316	53.291413	18.913528	-10.142956	51.694104	51.600113
6.966667	-3.835761	-5.011433	94.526577	0.149826	-0.265133	0.144122	103.743888	18.027690	12.821730	0.338937	40.629171	-16.023788	-39.160674	61.343687	10.801563	34.017173	35.544419	54.610113	6.030751	35.424575	50.751333	42.544821	-5.756961	55.740316	53.291413	18.913528	-10.142956	51.694104	51.600113
7.000000	-0.679314	-3.115271	87.889519	0.162615	-0.238264	0.183899	118.414792	18.147514	16.694950	6.659108	35.858442	-19.768705	-46.432844	45.892716	10.314486	53.526811	48.673855	40.034210	5.781416	65.119055	58.249504	44.552398	-5.820150	84.231956	58.345837	29.857067	-11.113031	78.981406	53.627827
7.033333	-0.679314	-3.115271	87.889519	0.162615	-0.238264	0.183899	118.414792	18.147514	16.694950	6.659108	35.858442	-19.768705	-46.432844	45.892716	10.314486	53.526811	48.673855	40.034210	5.781416	65.119055	58.249504	44.552398	-5.820150	84.231956	58.345837	29.857067	-11.113031	78.981406	53.627827
7.066667	-0.679314	-3.115271	87.889519	0.162615	-0.238264	0.183899	118.414792	18.147514	16.694950	6.659108	35.858442	-19.768705	-46.432844	45.892716	10.314486	53.526811	48.673855	40.034210	5.781416	65.119055	58.249504	44.552398	-5.820150	84.231956	58.345837	29.857067	-11.113031	78.981406	53.627827
7.100000	-0.679314	-3.115271	87.889519	0.162615	-0.238264	0.183899	118.414792	18.147514	16.694950	6.659108	35.858442	-19.768705	-46.432844	45.892716	10.314486	53.526811	48.673855	40.034210	5.781416	65.119055	58.249504	44.552398	-5.820150	84.231956	58.345837	29.857067	-11.113031	78.981406	53.627827
7.133333	-0.679314	-3.115271	87.889519	0.162615	-0.238264	0.183899	118.414792	18.147514	16.694950	6.659108	35.858442	-19.768705	-46.432844	45.892716	10.314486	53.526811	48.673855	40.034210	5.781416	65.119055	58.249504	44.552398	-5.820150	84.231956	58.345837	29.857067	-11.113031	78.981406	53.627827
7.166667	-0.679314	-3.115271	87.889519	0.162615	-0.238264	0.183899	118.414792	18.147514	16.694950	6.659108	35.858442	-19.768705	-46.432844	45.892716	10.314486	53.526811	48.673855	40.034210	5.781416	65.119055	58.249504	44.552398	-5.820150	84.231956	58.345837	29.857067	-11.113031	78.981406	53.627827
7.200000	-0.679314	-3.115271	87.889519	0.162615	-0.238264	0.183899	118.414792	18.147514	16.694950	6.659108	35.858442	-19.768705	-46.432844	45.892716	10.314486	53.526811	48.673855	40.034210	5.781416	65.119055	58.249504	44.552398	-5.820150	84.231956	58.345837	29.857067	-11.113031	78.981406	53.627827
7.233333	-0.679314	-3.115271	87.889519	0.162615	-0.238264	0.183899	118.414792	18.147514	16.694950	6.659108	35.858442	-19.768705	-46.432844	45.892716	10.314486	53.526811	48.673855	40.034210	5.781416	65.119055	58.249504	44.552398	-5.820150	84.231956	58.345837	29.857067	-11.113031	78.981406	53.627827
7.266667	-0.679314	-3.115271	87.889519	0.162615	-0.238264	0.183899	118.414792	18.147514	16.694950	6.659108	35.858442	-19.768705	-46.432844	45.892716	10.314486	53.526811	48.673855	40.034210	5.781416	65.119055	58.249504	44.552398	-5.820150	84.231956	58.345837	29.857067	-11.113031	78.981406	53.627827
7.300000	-0.679314	-3.115271	87.889519	0.162615	-0.238264	0.183899	118.414792	18.147514	16.694950	6.659108	35.858442	-19.768705	-46.432844	45.892716	10.314486	53.526811	48.673855	40.034210	5.781416	65.119055	58.249504	44.552398	-5.820150	84.231956	58.345837	29.857067	-11.113031	78.981406	53.627827
7.333333	-0.679314	-3.115271	87.889519	0.162615	-0.238264	0.183899	118.414792	18.147514	16.694950	6.659108	35.858442	-19.768705	-46.432844	45.892716	10.314486	53.526811	48.673855	40.034210	5.781416	65.119055	58.249504	44.552398	-5.820150	84.231956	58.345837	29.857067	-11.113031	78.981406	53.627827
7.366667	-0.679314	-3.115271	87.889519	0.162615	-0.238264	0.183899	118.414792	18.147514	16.694950	6.659108	35.858442	-19.768705	-46.432844	45.892716	10.314486	53.526811	48.673855	40.034210	5.781416	65.119055	58.249504	44.552398	-5.820150	84.231956	58.345837	29.857067	-11.113031	78.981406	53.627827
7.400000	-0.679314	-3.115271	87.889519	0.162615	-0.238264	0.183899	118.414792	18.147514	16.694950	6.659108	35.858442	-19.768705	-46.432844	45.892716	10.314486	53.526811	48.673855	40.034210	5.781416	65.119055	58.249504	44.552398	-5.820150	84.231956	58.345837	29.857067	-11.113031	78.981406	53.627827
7.433333	-0.679314	-3.115271	87.889519	0.162615	-0.238264	0.183899	118.414792	18.147514	16.694950	6.659108	35.858442	-19.768705	-46.432844	45.892716	10.314486	53.526811	48.673855	40.034210	5.781416	65.119055	58.249504	44.552398	-5.820150	84.231956	58.345837	29.857067	-11.113031	78.981406	53.627827
7.466667	-0.679314	-3.115271	87.889519	0.162615	-0.238264	0.183899	118.414792	18.147514	16.694950	6.659108	35.858442	-19.768705	-46.432844	45.892716	10.314486	53.526811	48.673855	40.034210	5.781416	65.119055	58.249504	44.552398	-5.820150	84.231956	58.345837	29.857067	-11.113031	78.981406	53.627827
